<?xml version="1.0" encoding="UTF-8" standalone="no"?>
<svg
   xmlns:dc="http://purl.org/dc/elements/1.1/"
   xmlns:cc="http://creativecommons.org/ns#"
   xmlns:rdf="http://www.w3.org/1999/02/22-rdf-syntax-ns#"
   xmlns:svg="http://www.w3.org/2000/svg"
   xmlns="http://www.w3.org/2000/svg"
   xmlns:sodipodi="http://sodipodi.sourceforge.net/DTD/sodipodi-0.dtd"
   xmlns:inkscape="http://www.inkscape.org/namespaces/inkscape"
   id="Layer_1"
   data-name="Layer 1"
   viewBox="0 0 408.45439 104.72"
   version="1.1"
   sodipodi:docname="STATS_Stats_logo_clear.svg"
   width="408.45441"
   height="104.72"
   inkscape:version="0.92.3 (2405546, 2018-03-11)">
  <metadata
     id="metadata27">
    <rdf:RDF>
      <cc:Work
         rdf:about="">
        <dc:format>image/svg+xml</dc:format>
        <dc:type
           rdf:resource="http://purl.org/dc/dcmitype/StillImage" />
        <dc:title>STATS_Stats_logo_color</dc:title>
      </cc:Work>
    </rdf:RDF>
  </metadata>
  <sodipodi:namedview
     pagecolor="#ffffff"
     bordercolor="#666666"
     borderopacity="1"
     objecttolerance="10"
     gridtolerance="10"
     guidetolerance="10"
     inkscape:pageopacity="0"
     inkscape:pageshadow="2"
     inkscape:window-width="640"
     inkscape:window-height="480"
     id="namedview25"
     showgrid="false"
     fit-margin-top="0"
     fit-margin-left="0"
     fit-margin-right="0"
     fit-margin-bottom="0"
     inkscape:zoom="0.72154179"
     inkscape:cx="203.26501"
     inkscape:cy="51.97"
     inkscape:window-x="0"
     inkscape:window-y="0"
     inkscape:window-maximized="0"
     inkscape:current-layer="Layer_1" />
  <defs
     id="defs4">
    <style
       id="style2">.cls-1{fill:#e6e7e8;}.cls-1,.cls-2,.cls-3{fill-rule:evenodd;}.cls-2,.cls-4{fill:#6d6e71;}.cls-3{fill:#df1f34;}</style>
  </defs>
  <title
     id="title6">STATS_Stats_logo_color</title>
  <path
     class="cls-1"
     d="M 66.35,58.43 0,103 66.35,0 v 58.41 z"
     id="path8"
     inkscape:connector-curvature="0"
     style="fill:#e6e7e8;fill-rule:evenodd" />
  <path
     class="cls-2"
     d="M 66.27,54.94 V 0 L 132.62,102.76 66.27,58.41 v -3.49 z"
     id="path10"
     inkscape:connector-curvature="0"
     style="fill:#6d6e71;fill-rule:evenodd" />
  <polygon
     class="cls-3"
     points="60.06,193.72 126.08,161.58 192.68,193.72 126.08,193.72 "
     id="polygon12"
     style="fill:#df1f34;fill-rule:evenodd"
     transform="translate(-60.06,-89)" />
  <path
     class="cls-4"
     d="m 252.24,16.77 v 86.64 h -16 V 16.77 H 219.55 V 1.33 h 49.39 v 15.44 z"
     id="path14"
     inkscape:connector-curvature="0"
     style="fill:#6d6e71" />
  <path
     class="cls-4"
     d="m 277.31,1.33 h 21.46 l 17.44,102.08 h -16.1 l -2.62,-18 h -19 l -2.55,18 h -16 z m 3.29,69.48 h 14.82 l -7.38,-51.64 z"
     id="path16"
     inkscape:connector-curvature="0"
     style="fill:#6d6e71" />
  <path
     class="cls-4"
     d="m 339.83,16.77 v 86.64 h -16 V 16.77 H 307.15 V 1.33 h 49.4 v 15.44 z"
     id="path18"
     inkscape:connector-curvature="0"
     style="fill:#6d6e71" />
  <path
     class="cls-4"
     d="m 217.11,78.64 a 40.16,40.16 0 0 1 -1.41,11.16 20.33,20.33 0 0 1 -4.42,8.18 19,19 0 0 1 -7.68,5 32.48,32.48 0 0 1 -11.16,1.71 34.91,34.91 0 0 1 -12,-1.78 17.7,17.7 0 0 1 -7.64,-5.19 19.74,19.74 0 0 1 -4,-8.38 A 50.83,50.83 0 0 1 167.64,78 v -7 h 15.82 v 6.84 a 29.4,29.4 0 0 0 0.37,5 9.09,9.09 0 0 0 1.34,3.59 5.82,5.82 0 0 0 2.68,2.14 11.62,11.62 0 0 0 4.39,0.7 10.14,10.14 0 0 0 4.32,-0.8 6.82,6.82 0 0 0 2.71,-2.21 9.17,9.17 0 0 0 1.44,-3.39 20.18,20.18 0 0 0 0.44,-4.32 v -0.8 a 40.34,40.34 0 0 0 -0.3,-5.19 15,15 0 0 0 -1.14,-4.19 12.9,12.9 0 0 0 -2.28,-3.45 19.09,19.09 0 0 0 -3.72,-3.05 l -9.65,-6.23 a 53.46,53.46 0 0 1 -8.08,-6.27 22.47,22.47 0 0 1 -6.9,-13.41 61.36,61.36 0 0 1 -0.57,-8.88 v -1.81 q 0,-13.13 6.27,-19.2 Q 181.05,0 192.94,0 q 12.33,0 18.13,6.37 5.8,6.37 5.8,19.17 v 8 h -15.93 v -8.85 a 14.3,14.3 0 0 0 -0.47,-3.79 8.59,8.59 0 0 0 -1.41,-2.95 6.05,6.05 0 0 0 -2.51,-1.91 9.65,9.65 0 0 0 -3.79,-0.67 9.1,9.1 0 0 0 -4,0.77 6.47,6.47 0 0 0 -2.58,2.18 9.5,9.5 0 0 0 -1.41,3.35 17,17 0 0 0 -0.37,4.22 l 0.07,1.94 a 16.69,16.69 0 0 0 1.91,7.51 14,14 0 0 0 5.56,5.66 l 8.65,5.1 a 42.67,42.67 0 0 1 7.91,6 27.46,27.46 0 0 1 5,6.67 27.79,27.79 0 0 1 2.68,7.64 53.71,53.71 0 0 1 0.94,8.85 v 3.35 z"
     id="path20"
     inkscape:connector-curvature="0"
     style="fill:#6d6e71" />
  <path
     class="cls-4"
     d="m 408.45,78.64 a 40.16,40.16 0 0 1 -1.41,11.16 20.33,20.33 0 0 1 -4.42,8.18 19,19 0 0 1 -7.68,5 32.48,32.48 0 0 1 -11.16,1.71 34.91,34.91 0 0 1 -12,-1.78 17.7,17.7 0 0 1 -7.64,-5.19 19.74,19.74 0 0 1 -4,-8.38 50.83,50.83 0 0 1 -1.2,-11.34 v -7 h 15.82 v 6.84 a 29.4,29.4 0 0 0 0.37,5 9.09,9.09 0 0 0 1.34,3.59 5.82,5.82 0 0 0 2.68,2.14 11.62,11.62 0 0 0 4.39,0.7 10.14,10.14 0 0 0 4.32,-0.8 6.82,6.82 0 0 0 2.71,-2.21 9.17,9.17 0 0 0 1.44,-3.39 20.18,20.18 0 0 0 0.44,-4.32 v -0.8 a 40.34,40.34 0 0 0 -0.3,-5.19 15,15 0 0 0 -1.14,-4.19 12.9,12.9 0 0 0 -2.28,-3.45 19.09,19.09 0 0 0 -3.72,-3.05 l -9.65,-6.23 a 53.46,53.46 0 0 1 -8.08,-6.27 22.47,22.47 0 0 1 -6.9,-13.41 61.36,61.36 0 0 1 -0.57,-8.88 v -1.81 q 0,-13.13 6.27,-19.2 Q 372.35,0 384.26,0 q 12.33,0 18.13,6.37 5.8,6.37 5.8,19.17 v 8 H 392.3 l -0.07,-8.91 a 14.3,14.3 0 0 0 -0.47,-3.79 8.59,8.59 0 0 0 -1.41,-2.95 6.05,6.05 0 0 0 -2.51,-1.89 9.65,9.65 0 0 0 -3.79,-0.67 9.1,9.1 0 0 0 -4,0.77 6.47,6.47 0 0 0 -2.58,2.18 9.5,9.5 0 0 0 -1.41,3.35 17,17 0 0 0 -0.37,4.22 l 0.07,1.94 a 16.69,16.69 0 0 0 1.91,7.51 14,14 0 0 0 5.53,5.69 l 8.65,5.1 a 42.67,42.67 0 0 1 7.91,6 27.46,27.46 0 0 1 5,6.67 27.79,27.79 0 0 1 2.68,7.64 53.71,53.71 0 0 1 0.94,8.85 v 3.35 z"
     id="path22"
     inkscape:connector-curvature="0"
     style="fill:#6d6e71" />
</svg>
