<svg id="Layer_1" data-name="Layer 1" xmlns="http://www.w3.org/2000/svg" viewBox="0 0 56.69 56.69"><defs><style>.cls-1{fill:#d11782;}</style></defs><path class="cls-1" d="M48.8,20.78h0a1,1,0,0,0-1-1H38.72l1.8-10.68a1,1,0,0,0-.84-1.17h0a1,1,0,0,0-1.17.84l-1.86,11H22.93l1.8-10.68a1,1,0,0,0-.83-1.17h0a1,1,0,0,0-1.17.84l-1.86,11H8.92a1,1,0,0,0-1,1h0a1,1,0,0,0,1,1h11.6l-2,11.85H8.92a1,1,0,0,0-1,1h0a1,1,0,0,0,1,1h9.26l-2,11.91A1,1,0,0,0,17,48.79h0A1,1,0,0,0,18.19,48L20.25,35.7H34L32,47.61a1,1,0,0,0,.84,1.18h0A1,1,0,0,0,34,48L36,35.7H47.78a1,1,0,0,0,1-1h0a1,1,0,0,0-1-1H36.38l2-11.85h9.4A1,1,0,0,0,48.8,20.78Zm-12.49,1-2,11.85H20.59l2-11.85Z"/></svg>