<svg id="Layer_1" data-name="Layer 1" xmlns="http://www.w3.org/2000/svg" viewBox="0 0 1218.9 340.16"><defs><style>.cls-1{fill-rule:evenodd;}</style></defs><path class="cls-1" d="M1080.54,177V80h23.53v39.53h91.3V80h23.53v97h-23.53V130.86h-91.3V177Zm-52.71-33.91,23.53,2.82c-4.71,10.36-14.12,18.83-26.35,24.49-13.18,4.71-28.24,7.54-46.13,7.54-19.76,0-34.82-1.88-47.06-5.66-11.29-4.71-20.7-10.37-26.35-18.84-6.59-8.47-9.41-16.94-9.41-25.41,0-10.35,2.82-18.82,10.35-26.36,6.59-7.53,16.94-13.17,30.12-16.94,12.23-4.7,26.36-6.59,42.35-6.59,17.89,0,32,2.83,44.24,7.53s20.71,12.24,25.42,20.71L1025,109.22a32,32,0,0,0-17.89-15.07c-7.53-2.82-16.94-4.7-29.17-4.7q-19.77,0-33.89,5.64c-8.47,2.83-15.06,7.54-18.83,14.13a33.26,33.26,0,0,0-5.64,17.88c0,8.47,1.88,16,6.59,21.65,4.7,6.58,11.29,11.29,20.7,14.12a99.85,99.85,0,0,0,29.18,4.71A90.38,90.38,0,0,0,1010,161c8.47-3.76,15.06-10.35,17.88-17.88M837.7,80h23.53v97H837.7ZM720.05,177,652.28,80h25.41l45.18,70.59c3.77,4.7,7.53,10.35,9.41,15.06,2.83-4.71,5.65-10.36,9.41-15.06L789.7,80h23.53l-68.71,97Zm-213.67,0V80h128V91.33H529.92v30.12h97.89v11.29H529.92v32H638.16V177ZM369,177V80h22.59v84.71h86.6V177Zm-131.77-40.5h59.3l-17.88-26.35a236.23,236.23,0,0,1-13.18-19.77c-1.88,5.65-4.71,12.24-9.41,17.88ZM186.36,177l67.77-97h24.48l72.47,97H324.73L304,147.81H230.6L210.84,177ZM0,177V80H34.83l42.35,68.71a135.41,135.41,0,0,1,8.47,14.12c1.89-3.77,4.71-8.48,9.41-16L136.48,80h32v97H145.89V96L94.12,177H73.42L22.59,94.15V177Z"/><path class="cls-1" d="M1193.49,235.37c0,3.76.94,7.53,2.82,9.41a8.55,8.55,0,0,0,6.59,2.82,10.7,10.7,0,0,0,7.53-2.82c1.88-1.88,2.82-5.65,2.82-9.41,0-4.71-.94-7.53-2.82-9.41a10.66,10.66,0,0,0-7.53-2.83,8.53,8.53,0,0,0-6.59,2.83c-1.88,1.88-2.82,4.7-2.82,9.41m-5.65,0c0-6.59,1.88-10.36,4.71-13.18s6.58-3.77,10.35-3.77c4.71,0,8.47,1,11.29,3.77,2.83,3.77,4.71,7.53,4.71,12.24a29.08,29.08,0,0,1-1.88,10.35,8.5,8.5,0,0,1-5.65,5.65c-2.82.94-4.71,1.88-8.47,1.88-4.71,0-7.53-.94-11.3-4.71-2.82-2.82-3.76-6.59-3.76-12.23m-89.42-17h5.65v33h-5.65Zm0-12.23h5.65v6.59h-5.65ZM990.18,235.37c0,3.76.94,7.53,2.82,9.41a8.57,8.57,0,0,0,6.59,2.82c1.88,0,3.77-.94,5.65-2.82s2.82-4.71,2.82-9.41c0-3.77-.94-7.53-2.82-9.41a8.53,8.53,0,0,0-6.59-2.83q-2.82,0-5.65,2.83c-1.88,1.88-2.82,4.7-2.82,9.41m17.88,16V247.6a11.56,11.56,0,0,1-9.41,4.71c-2.82,0-4.71-.94-7.53-1.88-1.88-1.89-3.76-3.77-4.7-6.59a18.67,18.67,0,0,1-1.89-8.47c0-3.77,0-6.59,1.89-9.41.94-1.89,2.82-4.71,4.7-5.65,1.88-1.89,4.71-1.89,7.53-1.89a11.83,11.83,0,0,1,5.65,1c.94.94,2.82,1.88,3.76,2.82v-16h5.65v45.18Zm-112,0v-4.71c-2.83,3.77-6.59,5.65-10.36,5.65a11.92,11.92,0,0,1-5.64-.94,12.74,12.74,0,0,1-3.77-2.83,7.13,7.13,0,0,1-1.88-3.76V218.42h5.65V242.9a4.88,4.88,0,0,0,1.88,3.76,12.25,12.25,0,0,0,9.41,0c.94-.94,2.83-1.88,2.83-3.76.94-1.89.94-3.77.94-6.59V218.42h5.64v33Zm-104.48-4.71.94,4.71a7.11,7.11,0,0,1-3.76.94c-2.83,0-3.77-.94-4.71-.94-1.88-.94-1.88-1.88-2.83-2.83,0-.94-.94-2.82-.94-6.58V223.13h-3.76v-4.71h3.76v-7.53l5.65-3.76v11.29h5.65v4.71h-5.65V242c0,1.88,0,2.82.94,3.76a.92.92,0,0,0,.94.94h3.77ZM668.28,242l5.65-1c.94,1.89.94,3.77,2.82,4.71.94,1.88,3.76,1.88,5.65,1.88,2.82,0,4.7,0,5.64-.94a3.75,3.75,0,0,0,1.89-3.76c0-1.89,0-2.83-.94-2.83a8,8,0,0,0-5.65-1.88c-4.71-1.88-7.53-1.88-9.41-2.82-.95-.94-2.83-1.89-2.83-3.77a7.13,7.13,0,0,1-1.88-3.76c0-1.88.94-2.83.94-4.71l2.82-2.82c.95-.94,2.83-.94,3.77-1.89h4.7a20.6,20.6,0,0,1,7.54,1,13,13,0,0,1,3.76,2.82,7.19,7.19,0,0,1,1.88,4.71l-5.64.94a4.91,4.91,0,0,0-1.89-3.77c-.94-.94-2.82-.94-4.7-.94-2.83,0-4.71,0-5.65.94s-1.88,1.89-1.88,2.83,0,1.88.94,1.88c0,.94.94.94,1.88,1.88a12.65,12.65,0,0,1,4.71.94c4.7.94,7.53,1.88,8.47,2.83a13,13,0,0,1,3.76,2.82,7.19,7.19,0,0,1,1.88,4.71c0,1.88-.94,3.76-1.88,5.64a20.51,20.51,0,0,1-4.7,3.77c-1.89.94-4.71.94-7.53.94-3.77,0-7.53-.94-9.42-2.82-2.82-1.89-3.76-3.77-4.7-7.53M544,264.55l-.94-5.65a7.14,7.14,0,0,0,3.77.94,3.45,3.45,0,0,0,2.82-.94c.94,0,.94-.94,1.88-1.88l1.89-3.77v-1.88l-12.24-33h5.65l7.53,19.77c.94,1.88.94,4.71,1.88,7.53a65,65,0,0,1,2.82-7.53l6.59-19.77h5.65l-12.24,33.89-3.76,7.53a13.18,13.18,0,0,1-2.82,3.77c-1.89.94-2.83,1.88-4.71,1.88-.94,0-2.83-.94-3.77-.94m-81.88-17.89.94,4.71a8.49,8.49,0,0,1-4.71.94c-1.88,0-3.76-.94-4.7-.94-.95-.94-1.89-1.88-1.89-2.83-.94-.94-.94-2.82-.94-6.58V223.13h-4.7v-4.71h4.7v-7.53l5.65-3.76v11.29h5.65v4.71H456.5v22.59l.94.94h4.71Zm-102.6,4.71v-4.71a13.4,13.4,0,0,1-11.29,5.65,12,12,0,0,1-5.65-.94c-.94-.94-2.82-1.88-3.77-2.83,0-.94-.94-2.82-.94-3.76-.94-1.88-.94-2.82-.94-5.65V218.42h5.65v18.83c0,2.82,0,4.71.94,5.65a4.88,4.88,0,0,0,1.88,3.76c.95.94,2.83.94,4.71.94a10.28,10.28,0,0,0,4.71-.94,13,13,0,0,0,2.82-3.76c.94-1.89.94-3.77.94-6.59V218.42h5.65v33Zm-113-16c-2.82.94-5.64.94-9.41,1.88-2.82,0-3.76.94-4.7.94-1,.94-1.89.94-2.83,1.88,0,.94-.94,1.89-.94,2.83a4.88,4.88,0,0,0,1.88,3.76,7.21,7.21,0,0,0,4.71,1.88,13.63,13.63,0,0,0,6.59-1.88c.94-.94,2.82-1.88,3.76-3.76,0-.94.94-2.83.94-5.65Zm0,12.23a19.51,19.51,0,0,1-5.64,3.77c-1.89.94-4.71.94-6.59.94q-5.66,0-8.47-2.82a10.11,10.11,0,0,1-1.89-11.3l2.83-2.82c1.88-.94,2.82-.94,4.7-1.89a12.59,12.59,0,0,0,4.71-.94,29,29,0,0,0,10.35-1.88v-.94a5.56,5.56,0,0,0-1.88-4.71c-1.88-1.88-3.76-1.88-6.59-1.88s-4.7,0-5.64.94c-1.89.94-1.89,2.83-2.83,4.71l-5.65-.94c.94-1.88.94-3.77,2.83-5.65a20.55,20.55,0,0,1,4.7-2.82c1.89-1,4.71-1,7.53-1s4.71,0,6.59,1c1.89,0,3.77.94,3.77,1.88a7.13,7.13,0,0,1,1.88,3.76c0,1,.94,2.83.94,5.65V247.6c0,1.89.94,2.83.94,3.77h-5.64c0-.94-1-1.88-1-3.77M116.71,232.54h18.83c0-2.82-.94-5.64-1.89-6.58a10.64,10.64,0,0,0-7.52-2.83c-2.83,0-4.71,0-6.59,1.88a10.68,10.68,0,0,0-2.83,7.53M135.54,241l5.65,1a20.74,20.74,0,0,1-4.71,7.53c-2.83,1.88-5.65,2.82-10.35,2.82s-8.48-.94-11.3-4.71c-2.82-2.82-3.76-6.59-3.76-12.23s.94-9.41,3.76-12.24c2.82-3.76,6.59-4.71,11.3-4.71s8.47,1,11.29,3.77c2.82,3.77,3.77,7.53,3.77,13.18v.94H116.71c0,3.76.94,6.59,2.83,8.47a10.16,10.16,0,0,0,6.59,2.82c2.82,0,4.7,0,5.64-.94,1.88-1.88,2.83-2.82,3.77-5.65M5.65,235.37c0,3.76,0,6.59.94,8.47a8.57,8.57,0,0,0,7.53,3.76,8.57,8.57,0,0,0,6.59-2.82c1.88-1.88,2.82-5.65,2.82-9.41,0-4.71-.94-7.53-2.82-9.41a8.54,8.54,0,0,0-6.59-2.83c-1.88,0-4.71.94-5.65,2.83-1.88,1.88-2.82,4.7-2.82,9.41m0,16H0V206.19H5.65v16a12.1,12.1,0,0,1,9.41-3.77,11.87,11.87,0,0,1,5.65,1c1.88.94,3.76,1.88,4.7,3.76a20.63,20.63,0,0,1,2.83,4.71c0,2.82.94,4.7.94,6.59,0,5.64-1.88,10.35-4.71,13.17-2.82,3.77-5.65,4.71-9.41,4.71-4.71,0-7.53-1.88-9.41-4.71Z"/></svg>