<svg id="Layer_1" data-name="Layer 1" xmlns="http://www.w3.org/2000/svg" viewBox="0 0 56.69 56.69"><defs><style>.cls-1{fill:#d11782;}</style></defs><path class="cls-1" d="M20.8,31.69H21c5.33,0,6.52-2,7.28-4.14a1,1,0,0,1,.1-.29c.06.12.11.24.16.36.72,1.64,1.82,4.12,7.36,4.07,4.6,0,7.59-1.76,9.68-4.53V51a1,1,0,0,0,2,0V23.67c1.54-3.54,2.42-8,3.34-12.63l.75-3.76L50,7.81a34.1,34.1,0,0,1-5.2.91c-3.22.43-6.55.87-8.39,1.91a21.63,21.63,0,0,0-3.19,2.61c-1.52,1.38-3.8,3.44-4.91,3.65-1.11-.21-3.39-2.27-4.91-3.65a22.16,22.16,0,0,0-3.19-2.61c-1.84-1-5.17-1.48-8.39-1.91a33.67,33.67,0,0,1-5.2-.91L5,7.28,5.78,11C8,22.07,9.83,31.59,20.8,31.69ZM7.64,10.11c1.15.22,2.53.4,4,.59,2.9.39,6.17.82,7.67,1.67a22.86,22.86,0,0,1,2.84,2.35c2.17,2,4.42,4,6.16,4.17h.18c1.74-.16,4-2.2,6.16-4.17a22.86,22.86,0,0,1,2.84-2.35c1.5-.85,4.77-1.28,7.67-1.67,1.42-.19,2.8-.37,4-.59l-.1.54c-2.17,11-3.73,19-13.08,19-4.25,0-4.88-1.43-5.5-2.87A4,4,0,0,0,29,24.71l-.5-.28-.5.28a3.52,3.52,0,0,0-1.55,2.18c-.51,1.41-1,2.85-5.58,2.82-9.35-.08-10.91-8-13.08-19Z"/><path class="cls-1" d="M37,25c3.24,0,5.59-4,5.84-4.51l.49-.87-.87-.49A12.24,12.24,0,0,0,37,17.79c-3.24,0-5.59,4.05-5.84,4.51l-.49.87.87.48A12.05,12.05,0,0,0,37,25Zm0-5.25a10.27,10.27,0,0,1,3.5.68C39.66,21.58,38.29,23,37,23a10,10,0,0,1-3.5-.69C34.28,21.24,35.65,19.79,37,19.79Z"/><path class="cls-1" d="M19.73,24.89a12.12,12.12,0,0,0,5.46-1.39l.87-.49-.49-.87c-.25-.46-2.6-4.51-5.84-4.51A12.18,12.18,0,0,0,14.27,19l-.87.49.49.86C14.14,20.89,16.49,24.89,19.73,24.89Zm0-5.26c1.33,0,2.69,1.45,3.5,2.57a9.78,9.78,0,0,1-3.5.69c-1.33,0-2.69-1.45-3.5-2.57a9.7,9.7,0,0,1,3.5-.65Z"/></svg>