<svg id="Layer_1" data-name="Layer 1" xmlns="http://www.w3.org/2000/svg" viewBox="0 0 56.69 56.69"><defs><style>.cls-1{fill:#d11782;}</style></defs><path class="cls-1" d="M33.94,20.57a5.6,5.6,0,1,0-5.59,5.59,5.6,5.6,0,0,0,5.59-5.59Zm-9.22,0a3.63,3.63,0,1,1,3.63,3.63h0a3.63,3.63,0,0,1-3.63-3.63Z"/><path class="cls-1" d="M34.58,36.8,40,30.43a12.1,12.1,0,0,0,2.11-3.49,14.72,14.72,0,1,0-27.57,0,12.1,12.1,0,0,0,2.11,3.49l5.45,6.37C15.25,37.49,8,39.45,8,43.08s10.2,6.58,20.31,6.58,20.31-2.26,20.31-6.58S41.44,37.49,34.58,36.8ZM16.38,26.26a12.77,12.77,0,1,1,23.94,0,10.25,10.25,0,0,1-1.77,2.94L28.35,41.12,18.19,29.2A10.15,10.15,0,0,1,16.38,26.26Zm12,21.43C17.16,47.69,10,45,10,43.08s4.76-3.78,13.64-4.46l4.71,5.54L33,38.67c8.92.63,13.68,2.94,13.68,4.41S39.53,47.69,28.35,47.69Z"/></svg>